<?xml version="1.0" encoding="UTF-8" standalone="no"?>
<!DOCTYPE svg PUBLIC "-//W3C//DTD SVG 1.1//EN" "http://www.w3.org/Graphics/SVG/1.1/DTD/svg11.dtd">
<svg width="100%" height="100%" viewBox="0 0 512 512" version="1.1" xmlns="http://www.w3.org/2000/svg" xmlns:xlink="http://www.w3.org/1999/xlink" xml:space="preserve" xmlns:serif="http://www.serif.com/" style="fill-rule:evenodd;clip-rule:evenodd;stroke-linejoin:round;stroke-miterlimit:2;">
    <path d="M195.065,240.1L195.065,239.935C175.928,239.935 160.485,255.755 160.485,275.199C160.485,294.643 175.928,310.464 195.065,310.464C214.202,310.464 229.646,294.644 229.646,275.364C229.646,255.918 214.034,240.1 195.065,240.1Z" style="fill:rgb(253,248,0);fill-rule:nonzero;"/>
    <path d="M256,6C117.929,6 6,117.929 6,256C6,394.071 117.929,506 256,506C394.071,506 506,394.071 506,256C506,117.929 394.071,6 256,6ZM348.494,387.911C348.494,387.911 335.9,373.9 326.839,361.545C370.484,349.186 386.939,324.469 386.939,324.469C341.56,352.526 299.179,363.321 256,361.918C212.821,363.318 170.44,352.526 125.066,324.469C125.066,324.469 141.516,349.186 185.166,361.545C176.102,373.904 163.512,387.911 163.512,387.911C88.639,386.263 59.6,340.453 57.92,342.43C57.92,240.43 107.44,157.376 107.44,157.376C151.756,125.576 193.051,124.254 200.94,124.089L205.977,128.868C149.406,144.687 122.044,169.405 122.044,169.405C170.597,145.954 216.359,137.705 256,137.211C295.642,137.711 341.4,145.954 389.956,169.405C389.956,169.405 362.594,144.687 306.024,128.868L311.06,124.089C318.95,124.254 360.244,125.572 404.56,157.376C404.56,157.376 454.079,240.428 454.079,342.43C452.4,340.453 423.361,386.263 348.494,387.911Z" style="fill:rgb(253,248,0);fill-rule:nonzero;"/>
    <path d="M316.935,239.933L316.935,240.098C297.966,240.098 282.354,255.918 282.354,275.362C282.354,294.642 297.799,310.462 316.935,310.462C336.071,310.462 351.515,294.642 351.515,275.197C351.515,255.752 336.072,239.933 316.935,239.933Z" style="fill:rgb(253,248,0);fill-rule:nonzero;"/>
</svg>
