<?xml version="1.0" encoding="UTF-8" standalone="no"?>
<!DOCTYPE svg PUBLIC "-//W3C//DTD SVG 1.1//EN" "http://www.w3.org/Graphics/SVG/1.1/DTD/svg11.dtd">
<svg width="100%" height="100%" viewBox="0 0 512 512" version="1.1" xmlns="http://www.w3.org/2000/svg" xmlns:xlink="http://www.w3.org/1999/xlink" xml:space="preserve" xmlns:serif="http://www.serif.com/" style="fill-rule:evenodd;clip-rule:evenodd;stroke-linejoin:round;stroke-miterlimit:2;">
    <path d="M124.688,188.688C130.894,182.484 141.106,182.484 147.312,188.688L286.4,327.776L353.488,260.688C359.799,254.721 369.801,254.721 376.112,260.688L480,364.576L480,114.832C479.956,69.408 442.592,32.044 397.168,32L114.832,32C69.408,32.044 32.044,69.408 32,114.832L32,281.376L124.688,188.688ZM360,96C390.721,96 416,121.279 416,152C416,182.721 390.721,208 360,208C329.279,208 304,182.721 304,152C304,121.279 329.279,96 360,96Z" style="fill:rgb(253,248,0);fill-rule:nonzero;"/>
    <path d="M364.8,294.624L309.024,350.4L431.152,472.528C456.9,460.818 474.919,436.685 478.832,408.672L364.8,294.624Z" style="fill:rgb(253,248,0);fill-rule:nonzero;"/>
    <path d="M136,222.624L32,326.624L32,397.168C32.044,442.592 69.408,479.956 114.832,480L393.376,480L136,222.624Z" style="fill:rgb(253,248,0);fill-rule:nonzero;"/>
</svg>
