<?xml version="1.0" encoding="UTF-8" standalone="no"?>
<!DOCTYPE svg PUBLIC "-//W3C//DTD SVG 1.1//EN" "http://www.w3.org/Graphics/SVG/1.1/DTD/svg11.dtd">
<svg width="100%" height="100%" viewBox="0 0 512 512" version="1.1" xmlns="http://www.w3.org/2000/svg" xmlns:xlink="http://www.w3.org/1999/xlink" xml:space="preserve" xmlns:serif="http://www.serif.com/" style="fill-rule:evenodd;clip-rule:evenodd;stroke-linejoin:round;stroke-miterlimit:2;">
    <path d="M440.037,0L418.023,0C408.347,0 408.347,15.002 418.023,15.002L440.037,15.002C462.77,15.002 481.266,33.431 481.266,56.082L481.266,229.679C481.266,252.331 462.771,270.76 440.037,270.76L415.07,270.76C413.423,270.76 411.822,271.302 410.512,272.303L364.7,307.346L364.7,278.261C364.7,274.119 361.342,270.76 357.199,270.76L265.905,270.76C258.429,270.76 251.244,268.787 244.907,265.035L244.907,180.831C244.907,165.059 236.874,151.124 224.675,142.88L224.675,56.082C224.675,33.431 243.171,15.002 265.905,15.002L371.017,15.002C380.692,15.002 380.692,0 371.017,0L265.905,0C234.899,0 209.673,25.159 209.673,56.082L209.673,136.287C206.239,135.467 202.66,135.02 198.978,135.02L61.662,135.02C36.337,135.02 15.733,155.57 15.733,180.831L15.733,197.028C15.733,206.704 30.735,206.704 30.735,197.028L30.735,180.831C30.735,163.843 44.608,150.022 61.662,150.022L198.979,150.022C216.032,150.022 229.906,163.843 229.906,180.831L229.906,268.022C229.816,268.684 229.82,269.351 229.906,270.008L229.906,317.727C229.906,318.67 229.849,319.609 229.764,320.543L214.295,320.543C197.25,320.543 183.039,332.846 180.093,349.015C179.411,349.272 178.756,349.632 178.149,350.1L144.599,376.004L144.599,356.037C144.599,351.895 141.241,348.536 137.098,348.536L61.662,348.536C44.608,348.536 30.735,334.715 30.735,317.727L30.735,242.035C30.735,232.36 15.733,232.36 15.733,242.035L15.733,317.728C15.733,342.989 36.337,363.54 61.662,363.54L129.598,363.54L129.598,391.274C129.598,397.29 136.904,400.9 141.683,397.211L179.524,367.994L179.524,452.381C179.524,471.509 195.123,487.069 214.296,487.069L260.328,487.069L260.328,504.573C260.328,510.588 267.634,514.201 272.412,510.511L302.773,487.069L311.742,487.069C330.915,487.069 346.514,471.508 346.514,452.381L346.514,439.063C346.514,429.388 331.512,429.388 331.512,439.063L331.512,452.381C331.512,463.237 322.644,472.067 311.742,472.067L300.213,472.067C298.554,472.067 296.942,472.617 295.63,473.63L275.329,489.304L275.329,479.567C275.329,475.425 271.971,472.066 267.828,472.066L214.295,472.066C203.394,472.066 194.525,463.235 194.525,452.38L194.525,355.232C194.525,344.377 203.393,335.546 214.295,335.546L311.742,335.546C322.643,335.546 331.512,344.378 331.512,355.232L331.512,392.057C331.512,401.732 346.514,401.732 346.514,392.057L346.514,355.233C346.514,336.106 330.915,320.545 311.742,320.545L244.822,320.545C244.879,319.608 244.908,281.722 244.908,281.722C251.522,284.381 258.613,285.763 265.906,285.763L349.699,285.763L349.699,322.529C349.699,328.53 356.974,332.144 361.757,328.486L417.611,285.763L440.038,285.763C471.043,285.763 496.269,260.605 496.269,229.68L496.269,56.082C496.268,25.159 471.042,0 440.037,0Z" style="fill:rgb(253,248,0);fill-rule:nonzero;"/>
    <path d="M371.714,55.42C362.189,52.989 352.484,60.514 352.484,70.355C352.484,81.108 348.565,91.47 341.455,99.528L320.788,122.915C319.45,120.861 317.138,119.502 314.504,119.502L274.159,119.502C270.015,119.502 266.658,122.861 266.658,127.003L266.658,217.781C266.658,221.924 270.015,225.283 274.159,225.283L314.504,225.283C317.536,225.283 320.14,223.481 321.323,220.895C329.492,225.886 338.957,228.584 348.587,228.584L419.89,228.584C430.785,228.584 439.774,219.13 439.262,208.262C439.035,203.449 439.283,138.827 439.283,137.392C439.283,126.698 430.583,117.997 419.912,117.997L382.833,117.886L384.369,114.251C391.385,97.635 390.229,78.368 381.282,62.709C379.194,59.051 375.794,56.463 371.714,55.42C367.631,54.378 375.794,56.463 371.714,55.42C362.19,52.989 375.794,56.463 371.714,55.42ZM307.003,210.28L281.66,210.28L281.66,134.504L307.003,134.504L307.003,210.28ZM419.89,132.998C422.312,132.998 424.282,134.969 424.282,137.391C424.282,138.818 424.267,142.692 424.247,147.943C424.136,176.94 424.062,204.402 424.276,208.966C424.354,210.613 423.553,211.712 423.069,212.22C422.231,213.098 421.102,213.581 419.89,213.581L348.587,213.581C340.088,213.581 331.77,210.635 325.163,205.288L322.006,202.731L322.006,144.192L352.701,109.458C362.235,98.652 367.486,84.765 367.486,70.354C367.486,69.93 368.065,69.82 368.257,70.15C374.9,81.775 375.756,96.078 370.549,108.413L364.629,122.434C363.652,124.747 363.898,127.394 365.281,129.489C366.666,131.583 369.006,132.845 371.516,132.853L419.89,132.998Z" style="fill:rgb(253,248,0);fill-rule:nonzero;"/>
    <path d="M79.963,260.536C75.819,260.536 72.461,263.894 72.461,268.037C72.461,272.179 75.819,275.538 79.963,275.538L102.074,275.538L97.943,300.52C97.267,304.607 100.033,308.469 104.12,309.145C104.535,309.214 104.946,309.247 105.352,309.247C108.957,309.247 112.136,306.641 112.744,302.968L117.279,275.539L135.375,275.539L131.244,300.521C130.568,304.608 133.334,308.47 137.421,309.146C137.836,309.215 138.247,309.248 138.653,309.248C142.258,309.248 145.437,306.642 146.045,302.969L150.58,275.54L180.677,275.54C184.821,275.54 188.178,272.181 188.178,268.039C188.178,263.896 184.821,260.538 180.677,260.538L153.06,260.538L156.086,242.239L180.677,242.239C184.821,242.239 188.178,238.881 188.178,234.738C188.178,230.595 184.821,227.237 180.677,227.237L158.566,227.237L162.697,202.254C163.373,198.168 160.606,194.306 156.52,193.63C152.428,192.952 148.571,195.72 147.895,199.807L143.361,227.236L125.265,227.236L129.396,202.253C130.072,198.167 127.305,194.305 123.219,193.629C119.122,192.951 115.272,195.719 114.595,199.806L110.06,227.235L79.963,227.235C75.819,227.235 72.461,230.593 72.461,234.736C72.461,238.879 75.819,242.237 79.963,242.237L107.58,242.237L104.554,260.536L79.963,260.536ZM122.786,242.237L140.881,242.237L137.856,260.536L119.76,260.536L122.786,242.237Z" style="fill:rgb(253,248,0);fill-rule:nonzero;"/>
    <path d="M262.928,374.25C256.871,369.263 248.813,367.296 240.73,369.261C230.371,371.777 219.919,381.46 219.919,397.421C219.919,407.356 223.544,415.979 231.002,423.784C237.094,430.16 245.886,436.223 259.506,443.444C260.605,444.027 261.812,444.318 263.019,444.318C264.226,444.318 265.433,444.027 266.533,443.444C290.294,430.847 306.118,418.2 306.118,397.421C306.118,381.373 295.295,371.789 284.567,369.409C276.508,367.621 268.695,369.519 262.928,374.25ZM291.115,397.421C291.115,408.629 283.681,416.917 263.018,428.292C242.355,416.916 234.92,408.628 234.92,397.421C234.92,389.082 239.749,384.938 244.268,383.839C245.101,383.637 245.994,383.523 246.911,383.523C250.31,383.523 254.048,385.094 256.352,389.561C257.665,392.104 260.32,393.68 263.167,393.621C266.026,393.564 268.606,391.886 269.815,389.293C272.242,384.091 277.347,383.175 281.316,384.057C286.054,385.106 291.115,389.169 291.115,397.421Z" style="fill:rgb(253,248,0);fill-rule:nonzero;"/>
</svg>
