<?xml version="1.0" encoding="UTF-8" standalone="no"?>
<!DOCTYPE svg PUBLIC "-//W3C//DTD SVG 1.1//EN" "http://www.w3.org/Graphics/SVG/1.1/DTD/svg11.dtd">
<svg width="100%" height="100%" viewBox="0 0 132 72" version="1.1" xmlns="http://www.w3.org/2000/svg" xmlns:xlink="http://www.w3.org/1999/xlink" xml:space="preserve" xmlns:serif="http://www.serif.com/" style="fill-rule:evenodd;clip-rule:evenodd;stroke-linejoin:round;stroke-miterlimit:2;">
    <g transform="matrix(1,0,0,1,-295.599,-144.961)">
        <path d="M424.827,176.519L425.71,184.343L426.758,175.064C426.32,175.518 425.775,175.947 425.12,176.349C425.026,176.406 424.925,176.462 424.827,176.519Z" style="fill:rgb(253,248,0);fill-rule:nonzero;"/>
    </g>
    <g transform="matrix(1,0,0,1,-295.599,-144.961)">
        <path d="M296.017,174.753L297.129,185.69L298.071,176.428C298.027,176.402 297.978,176.376 297.935,176.349C297.131,175.857 296.494,175.323 296.017,174.753Z" style="fill:rgb(253,248,0);fill-rule:nonzero;"/>
    </g>
    <g transform="matrix(1,0,0,1,-295.599,-144.961)">
        <path d="M425.545,171.559C424.62,171.307 423.267,170.957 421.539,170.552C418.084,169.74 413.127,168.716 407.137,167.778C404.142,167.309 400.891,166.857 397.444,166.453C393.996,166.055 390.353,165.709 386.58,165.427C382.807,165.144 378.904,164.928 374.935,164.786C370.967,164.641 366.934,164.576 362.902,164.595C360.871,164.589 358.877,164.642 356.87,164.669C354.868,164.704 352.876,164.721 350.892,164.793C348.91,164.852 346.944,164.911 345.001,164.97C343.061,165.056 341.144,165.142 339.258,165.226C338.787,165.247 338.317,165.268 337.85,165.289C337.383,165.316 336.918,165.344 336.455,165.371C335.53,165.427 334.613,165.482 333.707,165.537C332.8,165.594 331.903,165.64 331.017,165.704C330.132,165.771 329.257,165.838 328.395,165.904C327.532,165.97 326.681,166.035 325.843,166.099C325.006,166.176 324.181,166.252 323.37,166.327C321.749,166.478 320.182,166.619 318.681,166.799C317.18,166.967 315.741,167.122 314.376,167.313C313.693,167.403 313.028,167.491 312.381,167.576C311.735,167.661 311.109,167.766 310.501,167.856C309.894,167.948 309.307,168.038 308.739,168.124C308.174,168.224 307.629,168.321 307.105,168.413C306.583,168.512 306.079,168.593 305.602,168.697C305.126,168.802 304.672,168.902 304.24,168.998C303.808,169.087 303.403,169.193 303.023,169.295C302.642,169.396 302.285,169.487 301.955,169.581C301.296,169.778 300.738,169.947 300.291,170.107C299.844,170.266 299.503,170.391 299.278,170.49C299.051,170.583 298.938,170.638 298.938,170.638C298.938,170.638 299.431,170.529 300.359,170.365C300.589,170.317 300.849,170.277 301.135,170.23C301.419,170.181 301.73,170.126 302.065,170.068C302.741,169.969 303.509,169.824 304.377,169.697C305.244,169.568 306.199,169.403 307.246,169.256C307.768,169.176 308.312,169.093 308.875,169.007C309.334,168.946 309.811,168.882 310.296,168.818C305.128,170.259 301.055,172.512 303.8,174.517C306.082,176.184 310.769,177.626 315.993,178.809C316.264,178.851 316.534,178.896 316.806,178.938C318.14,179.149 319.477,179.347 320.795,179.53C322.114,179.708 323.411,179.883 324.667,180.053C327.181,180.379 329.531,180.661 331.547,180.901C335.58,181.368 338.269,181.679 338.269,181.679C338.269,181.679 337.592,181.653 336.409,181.585C335.227,181.511 333.537,181.416 331.512,181.251C329.487,181.09 327.127,180.872 324.603,180.588C323.341,180.443 322.037,180.295 320.715,180.116C319.393,179.939 318.051,179.749 316.711,179.543C315.373,179.33 314.036,179.103 312.723,178.861C311.41,178.62 310.123,178.348 308.882,178.07C307.64,177.792 306.448,177.484 305.325,177.165C304.201,176.849 303.15,176.502 302.195,176.141C301.239,175.785 300.384,175.394 299.656,174.99C298.927,174.591 298.333,174.158 297.91,173.732C297.477,173.313 297.267,172.868 297.187,172.56C297.171,172.482 297.156,172.413 297.143,172.353C297.14,172.293 297.137,172.242 297.135,172.201C297.131,172.119 297.129,172.077 297.129,172.077C297.129,168.581 303.491,166.915 310.861,165.497C310.893,165.492 310.924,165.486 310.956,165.482C313.365,165.108 316.089,164.726 319.071,164.387C322.052,164.043 325.289,163.731 328.718,163.47C332.146,163.2 335.768,162.999 339.516,162.83C341.391,162.764 343.297,162.698 345.226,162.63C347.155,162.597 349.106,162.564 351.074,162.531C352.056,162.507 353.048,162.512 354.042,162.514C355.035,162.515 356.032,162.516 357.031,162.517C358.027,162.518 359.025,162.518 360.023,162.519C361.022,162.532 362.022,162.545 363.021,162.558C367.02,162.63 371.017,162.768 374.946,162.975C378.876,163.184 382.737,163.469 386.468,163.808C393.928,164.491 400.861,165.398 406.764,166.375C412.669,167.35 417.542,168.395 420.921,169.215C422.61,169.625 423.927,169.976 424.817,170.225C425.016,170.282 425.191,170.333 425.348,170.378C425.634,170.773 425.819,171.198 425.889,171.655C425.781,171.625 425.667,171.593 425.545,171.559ZM424.722,174.562C424.661,174.608 424.594,174.659 424.52,174.715C424.442,174.765 424.356,174.819 424.263,174.878C424.076,174.991 423.869,175.138 423.614,175.262C423.117,175.531 422.498,175.83 421.768,176.124C421.585,176.198 421.397,176.274 421.203,176.353C421.006,176.424 420.804,176.498 420.597,176.573C420.183,176.729 419.739,176.865 419.278,177.013C418.354,177.304 417.343,177.585 416.269,177.86C415.193,178.131 414.056,178.404 412.869,178.64C411.685,178.886 410.457,179.115 409.207,179.337C407.957,179.554 406.685,179.767 405.41,179.959C402.859,180.332 400.301,180.651 397.9,180.925C395.5,181.199 393.253,181.392 391.328,181.56C389.403,181.727 387.795,181.823 386.671,181.9C385.545,181.964 384.902,182 384.902,182C384.902,182 387.463,181.722 391.303,181.304C393.223,181.099 395.459,180.822 397.854,180.53C400.249,180.237 402.8,179.898 405.342,179.506C407.888,179.134 410.427,178.72 412.791,178.25C413.973,178.016 415.113,177.778 416.19,177.535C417.266,177.287 418.279,177.032 419.204,176.765C419.666,176.631 420.109,176.502 420.526,176.364C420.735,176.297 420.938,176.232 421.136,176.169C421.332,176.099 421.522,176.031 421.706,175.965C422.443,175.702 423.069,175.43 423.573,175.182C423.831,175.069 424.041,174.932 424.235,174.831C424.33,174.777 424.418,174.728 424.499,174.683C424.576,174.631 424.645,174.584 424.707,174.541C424.957,174.371 425.09,174.281 425.09,174.281C425.09,174.281 424.962,174.378 424.722,174.562ZM380.854,167.694C379.253,167.627 377.633,167.559 375.999,167.49C374.365,167.441 372.718,167.39 371.064,167.34C369.41,167.312 367.75,167.284 366.089,167.255C364.429,167.246 362.768,167.237 361.114,167.228C359.458,167.233 357.809,167.238 356.172,167.243C354.537,167.26 352.914,167.277 351.312,167.293C349.708,167.307 348.125,167.335 346.568,167.365C343.453,167.426 340.442,167.513 337.588,167.602C334.733,167.695 332.036,167.818 329.547,167.948C327.058,168.089 324.777,168.227 322.756,168.364C320.735,168.499 318.975,168.646 317.526,168.774C316.077,168.907 314.938,169.006 314.163,169.087C313.387,169.165 312.973,169.206 312.973,169.206C312.973,169.206 313.385,169.146 314.157,169.034C314.928,168.921 316.061,168.762 317.506,168.587C318.951,168.412 320.708,168.207 322.726,168.005C323.734,167.899 324.809,167.8 325.942,167.696C327.076,167.606 328.268,167.512 329.512,167.413C332.002,167.233 334.701,167.055 337.557,166.905C338.986,166.826 340.453,166.759 341.954,166.692C343.454,166.642 344.987,166.576 346.547,166.537C349.666,166.437 352.889,166.377 356.167,166.347C357.804,166.337 359.454,166.327 361.111,166.316C362.771,166.314 364.435,166.335 366.1,166.346C367.765,166.38 369.429,166.413 371.087,166.447C372.745,166.502 374.396,166.558 376.034,166.613C377.67,166.696 379.294,166.78 380.899,166.862C382.502,166.968 384.086,167.054 385.643,167.172C387.199,167.293 388.73,167.402 390.225,167.551C391.721,167.69 393.184,167.824 394.606,167.983C395.318,168.059 396.019,168.134 396.71,168.208C397.4,168.29 398.08,168.372 398.748,168.452C400.085,168.605 401.374,168.783 402.611,168.947C405.087,169.274 407.345,169.65 409.345,169.986C410.344,170.166 411.278,170.334 412.141,170.489C413.003,170.658 413.794,170.812 414.508,170.952C415.934,171.248 417.051,171.495 417.809,171.678C418.568,171.857 418.973,171.952 418.973,171.952C418.973,171.952 418.564,171.873 417.799,171.724C417.035,171.567 415.907,171.377 414.477,171.12C413.759,171.001 412.965,170.87 412.1,170.727C411.234,170.597 410.296,170.457 409.295,170.307C407.289,170.024 405.023,169.736 402.548,169.442C401.311,169.3 400.022,169.145 398.685,169.017C398.017,168.949 397.337,168.88 396.647,168.81C395.956,168.748 395.255,168.686 394.544,168.623C391.701,168.363 388.697,168.163 385.589,167.96C384.036,167.856 382.454,167.785 380.854,167.694ZM378.121,183.903C367.136,182.884 356.003,182.889 345.021,183.918C343.683,183.694 342.835,183.487 342.374,183.358C355.111,182.228 368.004,182.222 380.742,183.341C380.306,183.465 379.465,183.675 378.121,183.903ZM361.527,184.959C357.526,184.959 354.267,184.833 351.631,184.65C358.254,184.276 364.911,184.274 371.534,184.643C368.879,184.83 365.584,184.959 361.527,184.959ZM330.814,160.292C330.814,160.292 331.024,160.135 331.418,159.841C331.614,159.695 331.857,159.514 332.142,159.301C332.417,159.077 332.734,158.819 333.089,158.53C333.447,158.246 333.829,157.914 334.243,157.549C334.66,157.189 335.106,156.792 335.578,156.362C336.523,155.507 337.592,154.537 338.803,153.525C339.112,153.278 339.427,153.027 339.748,152.77C340.07,152.514 340.397,152.251 340.749,152.009C341.098,151.762 341.452,151.511 341.812,151.255C342.181,151.012 342.568,150.783 342.953,150.542C343.147,150.422 343.342,150.301 343.538,150.18C343.737,150.063 343.946,149.962 344.152,149.851C344.567,149.634 344.986,149.414 345.41,149.191C345.845,148.992 346.293,148.808 346.742,148.616C346.967,148.52 347.193,148.424 347.421,148.328C347.649,148.233 347.888,148.166 348.122,148.083C348.594,147.925 349.07,147.766 349.549,147.606C349.786,147.517 350.035,147.465 350.281,147.402C350.527,147.34 350.775,147.278 351.023,147.216C351.52,147.099 352.016,146.95 352.524,146.858C353.034,146.773 353.546,146.687 354.06,146.601C355.083,146.397 356.139,146.338 357.191,146.228C358.249,146.097 359.288,146.112 360.337,146.067L361.122,146.046L361.528,146.035L361.924,146.047C362.451,146.062 362.977,146.078 363.503,146.093C364.555,146.098 365.599,146.213 366.636,146.302C366.895,146.324 367.153,146.347 367.411,146.37C367.669,146.4 367.924,146.444 368.18,146.482C368.69,146.562 369.197,146.642 369.702,146.721L370.079,146.781L370.452,146.865C370.7,146.921 370.946,146.977 371.193,147.033C371.683,147.151 372.176,147.24 372.654,147.38C373.602,147.68 374.553,147.913 375.435,148.292C375.879,148.472 376.328,148.624 376.753,148.82C377.175,149.02 377.593,149.218 378.005,149.413C379.628,150.237 381.098,151.143 382.358,152.102C383.005,152.558 383.582,153.048 384.145,153.496C384.693,153.961 385.208,154.408 385.687,154.831C386.636,155.685 387.464,156.429 388.145,157.042C388.487,157.346 388.793,157.617 389.059,157.854C389.329,158.085 389.56,158.281 389.747,158.441C390.121,158.759 390.32,158.929 390.32,158.929C390.32,158.929 390.11,158.772 389.716,158.48C389.519,158.333 389.276,158.152 388.991,157.939C388.711,157.717 388.39,157.463 388.031,157.178C387.32,156.599 386.457,155.897 385.467,155.091C384.47,154.297 383.343,153.406 382.053,152.529C380.778,151.63 379.308,150.797 377.707,150.028C377.301,149.848 376.889,149.666 376.472,149.481C376.054,149.3 375.611,149.163 375.175,149C374.307,148.656 373.376,148.436 372.448,148.16C371.981,148.031 371.497,147.951 371.016,147.843C370.775,147.793 370.534,147.742 370.291,147.69L369.927,147.614L369.556,147.561C369.061,147.491 368.563,147.421 368.063,147.351C367.812,147.318 367.563,147.274 367.311,147.246C367.057,147.225 366.803,147.204 366.549,147.183C365.531,147.102 364.508,146.994 363.471,146.994C362.954,146.982 362.436,146.969 361.917,146.957L361.528,146.947L361.15,146.959L360.613,146.976C360.096,148.472 363.319,153.065 356.453,155.546C357.543,155.506 358.641,155.468 359.735,155.462C360.532,155.453 361.329,155.443 362.123,155.434C362.918,155.437 363.71,155.447 364.495,155.47C366.065,155.505 367.609,155.58 369.102,155.668C370.594,155.763 372.037,155.868 373.4,156.017C374.762,156.165 376.049,156.318 377.233,156.485C378.418,156.646 379.501,156.816 380.458,156.986C381.414,157.156 382.246,157.315 382.93,157.451C383.613,157.589 384.148,157.705 384.512,157.789C384.876,157.871 385.07,157.915 385.07,157.915C385.07,157.915 384.284,157.793 382.907,157.579C382.218,157.477 381.381,157.358 380.42,157.235C379.457,157.12 378.374,156.977 377.188,156.852C376.003,156.719 374.717,156.605 373.356,156.497C371.993,156.403 370.559,156.287 369.071,156.215C367.584,156.142 366.046,156.082 364.482,156.063C362.917,156.037 361.335,156.039 359.741,156.052C358.147,156.047 356.564,156.111 355,156.149C353.438,156.222 351.9,156.286 350.415,156.4C350.376,156.402 350.339,156.405 350.301,156.407C349.581,156.465 348.873,156.525 348.184,156.592C346.583,156.745 345.072,156.919 343.681,157.105C342.289,157.289 341.018,157.491 339.894,157.685C339.333,157.789 338.808,157.887 338.323,157.977C337.84,158.082 337.396,158.175 336.998,158.275C336.204,158.482 335.584,158.658 335.17,158.808C334.753,158.948 334.538,159.045 334.538,159.045C334.538,159.045 334.769,159.002 335.2,158.922C335.63,158.845 336.262,158.733 337.065,158.59C337.868,158.451 338.841,158.27 339.962,158.092C341.083,157.918 342.352,157.739 343.74,157.579C345.129,157.417 346.636,157.27 348.232,157.145C349.829,157.018 351.516,156.921 353.261,156.839C353.917,156.815 354.584,156.791 355.255,156.766C354.663,157.594 363.312,159.308 347.984,160.911C347.041,160.945 346.102,160.98 345.168,161.014C343.232,161.12 341.319,161.225 339.438,161.329C335.677,161.573 332.044,161.847 328.606,162.186C327.504,162.292 326.425,162.403 325.365,162.518C327.564,161.895 329.455,161.175 330.814,160.292ZM420.97,166.059C417.589,164.914 413.062,164.087 408.685,163.288C402.511,162.16 396.127,160.994 393.075,159.009C391.247,157.82 389.627,156.423 387.911,154.944C382.483,150.265 376.33,144.961 361.527,144.961C346.724,144.961 340.571,150.265 335.143,154.944C333.428,156.423 331.807,157.82 329.98,159.009C326.927,160.994 320.544,162.16 314.37,163.288C309.992,164.087 305.465,164.914 302.085,166.059C300.48,166.602 295.599,168.254 295.599,172.077C295.599,173.485 296.492,174.747 298.255,175.827C299.547,176.62 301.326,177.349 303.692,178.056C307.481,179.189 312.739,180.236 319.318,181.169C328.127,182.417 337.026,183.13 340.413,183.377C340.471,183.955 340.853,184.456 341.406,184.66C341.608,184.735 346.528,186.49 361.527,186.49C376.526,186.49 381.447,184.735 381.649,184.66C382.201,184.456 382.583,183.955 382.641,183.377C386.028,183.13 394.928,182.417 403.736,181.169C410.316,180.236 415.573,179.189 419.362,178.056C421.729,177.349 423.507,176.62 424.8,175.827C426.562,174.747 427.455,173.485 427.455,172.077C427.455,168.254 422.574,166.602 420.97,166.059Z" style="fill:rgb(253,248,0);fill-rule:nonzero;"/>
    </g>
    <g transform="matrix(1,0,0,1,-295.599,-144.961)">
        <path d="M374.324,188.634C372.607,188.529 370.603,188.443 368.456,188.386C367.383,188.366 366.274,188.318 365.147,188.318C364.02,188.309 362.875,188.299 361.73,188.29C360.585,188.3 359.44,188.309 358.313,188.318C357.186,188.322 356.077,188.367 355.003,188.388C353.93,188.407 352.892,188.457 351.908,188.497C350.924,188.531 349.994,188.585 349.135,188.636C345.701,188.827 343.411,189.097 343.411,189.097C343.411,189.097 345.701,189.367 349.135,189.558C349.994,189.609 350.924,189.663 351.908,189.697C352.892,189.737 353.93,189.787 355.003,189.806C356.077,189.827 357.186,189.872 358.313,189.876C359.44,189.885 360.585,189.894 361.73,189.904C362.875,189.895 364.02,189.886 365.147,189.877C366.274,189.876 367.383,189.828 368.456,189.808C370.603,189.752 372.607,189.665 374.324,189.561C377.759,189.369 380.049,189.097 380.049,189.097C380.049,189.097 377.759,188.825 374.324,188.634Z" style="fill:rgb(253,248,0);fill-rule:nonzero;"/>
    </g>
    <g transform="matrix(1,0,0,1,-295.599,-144.961)">
        <path d="M373.545,193.146C371.934,193.05 370.054,192.97 368.04,192.918C367.033,192.899 365.993,192.855 364.935,192.854C363.878,192.846 362.804,192.837 361.73,192.829C360.656,192.838 359.582,192.846 358.524,192.855C357.467,192.858 356.427,192.9 355.42,192.919C354.412,192.938 353.439,192.983 352.515,193.02C351.593,193.052 350.72,193.102 349.915,193.148C346.693,193.325 344.545,193.574 344.545,193.574C344.545,193.574 346.693,193.824 349.915,194.001C350.72,194.047 351.593,194.097 352.515,194.129C353.439,194.166 354.412,194.211 355.42,194.229C356.427,194.249 357.467,194.291 358.524,194.294C359.582,194.302 360.656,194.311 361.73,194.32C362.804,194.311 363.878,194.303 364.935,194.294C365.993,194.294 367.033,194.25 368.04,194.231C370.054,194.179 371.934,194.099 373.545,194.003C376.767,193.825 378.915,193.574 378.915,193.574C378.915,193.574 376.767,193.323 373.545,193.146Z" style="fill:rgb(253,248,0);fill-rule:nonzero;"/>
    </g>
    <g transform="matrix(1,0,0,1,-295.599,-144.961)">
        <path d="M372.765,197.659C371.261,197.57 369.505,197.497 367.624,197.449C366.683,197.432 365.711,197.391 364.724,197.391C363.736,197.383 362.733,197.375 361.73,197.368C360.727,197.376 359.723,197.384 358.736,197.392C357.748,197.394 356.776,197.433 355.836,197.451C354.895,197.469 353.985,197.509 353.123,197.542C352.261,197.573 351.446,197.618 350.694,197.66C347.685,197.823 345.678,198.052 345.678,198.052C345.678,198.052 347.685,198.28 350.694,198.443C351.446,198.486 352.261,198.53 353.123,198.561C353.985,198.595 354.895,198.635 355.836,198.653C356.776,198.67 357.748,198.709 358.736,198.712C359.723,198.72 360.727,198.727 361.73,198.735C362.733,198.728 363.736,198.72 364.724,198.712C365.711,198.712 366.683,198.672 367.624,198.654C369.505,198.606 371.261,198.533 372.765,198.444C375.775,198.282 377.781,198.052 377.781,198.052C377.781,198.052 375.775,197.821 372.765,197.659Z" style="fill:rgb(253,248,0);fill-rule:nonzero;"/>
    </g>
    <g transform="matrix(1,0,0,1,-295.599,-144.961)">
        <path d="M371.986,202.171C370.587,202.091 368.956,202.024 367.207,201.98C366.333,201.965 365.43,201.928 364.512,201.927C363.595,201.921 362.662,201.913 361.73,201.906C360.798,201.914 359.865,201.921 358.947,201.928C358.03,201.931 357.126,201.966 356.252,201.982C355.377,201.999 354.532,202.034 353.73,202.065C352.929,202.094 352.172,202.134 351.474,202.173C348.677,202.321 346.812,202.529 346.812,202.529C346.812,202.529 348.677,202.737 351.474,202.885C352.172,202.924 352.929,202.964 353.73,202.993C354.532,203.024 355.377,203.058 356.252,203.076C357.126,203.092 358.03,203.127 358.947,203.13C359.865,203.137 360.798,203.144 361.73,203.151C362.662,203.144 363.595,203.137 364.512,203.13C365.43,203.13 366.333,203.093 367.207,203.077C368.956,203.034 370.587,202.967 371.986,202.886C374.783,202.738 376.648,202.529 376.648,202.529C376.648,202.529 374.783,202.319 371.986,202.171Z" style="fill:rgb(253,248,0);fill-rule:nonzero;"/>
    </g>
    <g transform="matrix(1,0,0,1,-295.599,-144.961)">
        <path d="M371.206,206.684C369.914,206.611 368.407,206.551 366.791,206.512C365.984,206.498 365.149,206.464 364.301,206.464C363.453,206.458 362.591,206.451 361.73,206.445C360.868,206.452 360.007,206.458 359.159,206.465C358.311,206.467 357.476,206.498 356.669,206.513C355.86,206.53 355.078,206.56 354.337,206.588C353.597,206.614 352.899,206.65 352.253,206.685C349.669,206.818 347.946,207.006 347.946,207.006C347.946,207.006 349.669,207.194 352.253,207.327C352.898,207.362 353.597,207.398 354.337,207.424C355.078,207.453 355.86,207.482 356.669,207.499C357.476,207.514 358.311,207.545 359.159,207.548C360.007,207.554 360.868,207.561 361.73,207.567C362.591,207.561 363.453,207.554 364.301,207.548C365.149,207.548 365.984,207.515 366.791,207.5C368.407,207.461 369.914,207.401 371.206,207.328C373.791,207.195 375.514,207.006 375.514,207.006C375.514,207.006 373.791,206.817 371.206,206.684Z" style="fill:rgb(253,248,0);fill-rule:nonzero;"/>
    </g>
    <g transform="matrix(1,0,0,1,-295.599,-144.961)">
        <path d="M370.427,211.196C369.241,211.132 367.857,211.078 366.375,211.043C365.634,211.03 364.868,211.001 364.089,211.001C363.311,210.995 362.521,210.99 361.73,210.984C360.939,210.99 360.149,210.996 359.37,211.001C358.592,211.003 357.826,211.031 357.085,211.044C356.342,211.061 355.624,211.085 354.944,211.111C354.266,211.135 353.625,211.166 353.033,211.198C350.661,211.316 349.079,211.483 349.079,211.483C349.079,211.483 350.661,211.651 353.033,211.769C353.625,211.801 354.266,211.831 354.944,211.856C355.624,211.881 356.342,211.906 357.085,211.922C357.826,211.935 358.592,211.963 359.37,211.965C360.149,211.971 360.939,211.977 361.73,211.983C362.521,211.977 363.311,211.972 364.089,211.966C364.868,211.966 365.634,211.936 366.375,211.923C367.857,211.889 369.241,211.835 370.427,211.77C372.799,211.652 374.38,211.483 374.38,211.483C374.38,211.483 372.799,211.315 370.427,211.196Z" style="fill:rgb(253,248,0);fill-rule:nonzero;"/>
    </g>
    <g transform="matrix(1,0,0,1,-295.599,-144.961)">
        <path d="M365.959,215.575C365.284,215.563 364.587,215.538 363.878,215.537C363.169,215.532 362.45,215.528 361.73,215.523C361.01,215.528 360.29,215.533 359.582,215.538C358.873,215.54 358.176,215.564 357.501,215.576C356.151,215.607 354.892,215.654 353.812,215.71C351.653,215.814 350.213,215.961 350.213,215.961C350.213,215.961 351.653,216.107 353.812,216.211C354.892,216.268 356.151,216.314 357.501,216.346C358.176,216.357 358.873,216.382 359.582,216.383C360.29,216.388 361.01,216.394 361.73,216.399C362.45,216.394 363.169,216.389 363.878,216.384C364.587,216.384 365.284,216.358 365.959,216.347C367.308,216.316 368.568,216.269 369.648,216.212C371.807,216.108 373.247,215.961 373.247,215.961C373.247,215.961 371.807,215.813 369.648,215.709C368.568,215.652 367.308,215.605 365.959,215.575Z" style="fill:rgb(253,248,0);fill-rule:nonzero;"/>
    </g>
</svg>
