<?xml version="1.0" encoding="UTF-8" standalone="no"?>
<!DOCTYPE svg PUBLIC "-//W3C//DTD SVG 1.1//EN" "http://www.w3.org/Graphics/SVG/1.1/DTD/svg11.dtd">
<svg width="100%" height="100%" viewBox="0 0 512 512" version="1.1" xmlns="http://www.w3.org/2000/svg" xmlns:xlink="http://www.w3.org/1999/xlink" xml:space="preserve" xmlns:serif="http://www.serif.com/" style="fill-rule:evenodd;clip-rule:evenodd;stroke-linejoin:round;stroke-miterlimit:2;">
    <g id="XMLID_146_">
        <path id="XMLID_966_" d="M488,385.4L488,297.897C488,292.374 483.522,287.897 478,287.897L368.483,287.897C326.895,287.897 286.454,303.835 256,331.915C225.545,303.836 185.105,287.897 143.517,287.897L34,287.897C28.478,287.897 24,292.374 24,297.897L24,385.4C10.117,389.681 0,402.629 0,417.897C0,436.645 15.252,451.897 34,451.897L206.794,451.897C211.443,474.806 231.739,492.103 256,492.103C280.261,492.103 300.557,474.806 305.206,451.897L478,451.897C496.748,451.897 512,436.645 512,417.897C512,402.628 501.883,389.68 488,385.4ZM468,307.897L468,335.897L413.483,335.897C407.961,335.897 403.483,340.374 403.483,345.897C403.483,351.42 407.961,355.897 413.483,355.897L468,355.897L468,383.897L282.617,383.897C295.961,374.176 310.91,366.722 326.811,361.978C332.104,360.399 335.114,354.829 333.536,349.537C331.957,344.245 326.387,341.233 321.095,342.813C301.066,348.788 282.36,358.54 266,371.397L266,349.998C293.144,323.196 330.265,307.897 368.483,307.897L468,307.897ZM44,355.897L143.517,355.897C174.42,355.897 204.607,365.899 229.381,383.897L44,383.897L44,355.897ZM143.517,307.897C181.735,307.897 218.856,323.196 246,349.998L246,371.408C216.967,348.641 180.701,335.897 143.517,335.897L44,335.897L44,307.897L143.517,307.897ZM478,431.897L296.206,431.897C290.684,431.897 286.206,436.374 286.206,441.897C286.206,458.553 272.655,472.103 256,472.103C239.345,472.103 225.794,458.553 225.794,441.897C225.794,436.374 221.316,431.897 215.794,431.897L34,431.897C26.28,431.897 20,425.617 20,417.897C20,410.177 26.28,403.897 34,403.897L478,403.897C485.72,403.897 492,410.177 492,417.897C492,425.617 485.72,431.897 478,431.897Z" style="fill:rgb(253,248,0);fill-rule:nonzero;"/>
        <path id="XMLID_1145_" d="M379.658,105.903C403.23,105.903 422.408,125.081 422.408,148.653C422.408,154.176 426.886,158.653 432.408,158.653C437.93,158.653 442.408,154.176 442.408,148.653C442.408,125.081 461.586,105.903 485.158,105.903C490.68,105.903 495.158,101.426 495.158,95.903C495.158,90.38 490.68,85.903 485.158,85.903C461.586,85.903 442.408,66.725 442.408,43.153C442.408,37.63 437.93,33.153 432.408,33.153C426.886,33.153 422.408,37.63 422.408,43.153C422.408,66.725 403.23,85.903 379.658,85.903C374.136,85.903 369.658,90.38 369.658,95.903C369.658,101.426 374.136,105.903 379.658,105.903ZM432.408,77.106C437.265,84.627 443.683,91.045 451.205,95.903C443.684,100.76 437.266,107.178 432.408,114.7C427.551,107.179 421.133,100.761 413.611,95.903C421.133,91.045 427.551,84.627 432.408,77.106Z" style="fill:rgb(253,248,0);fill-rule:nonzero;"/>
        <path id="XMLID_2233_" d="M92.25,193.147C115.822,193.147 135,212.325 135,235.897C135,241.42 139.478,245.897 145,245.897C150.522,245.897 155,241.42 155,235.897C155,212.325 174.178,193.147 197.75,193.147C203.272,193.147 207.75,188.67 207.75,183.147C207.75,177.624 203.272,173.147 197.75,173.147C174.178,173.147 155,153.969 155,130.397C155,124.874 150.522,120.397 145,120.397C139.478,120.397 135,124.874 135,130.397C135,153.969 115.822,173.147 92.25,173.147C86.728,173.147 82.25,177.624 82.25,183.147C82.25,188.67 86.728,193.147 92.25,193.147ZM145,164.35C149.857,171.871 156.275,178.289 163.797,183.147C156.276,188.004 149.858,194.422 145,201.944C140.143,194.423 133.725,188.005 126.203,183.147C133.725,178.29 140.143,171.872 145,164.35Z" style="fill:rgb(253,248,0);fill-rule:nonzero;"/>
        <path id="XMLID_2234_" d="M235.667,121.897C241.189,121.897 245.667,117.42 245.667,111.897L245.667,29.897C245.667,24.374 241.189,19.897 235.667,19.897C230.145,19.897 225.667,24.374 225.667,29.897L225.667,111.897C225.667,117.42 230.145,121.897 235.667,121.897Z" style="fill:rgb(253,248,0);fill-rule:nonzero;"/>
        <path id="XMLID_2235_" d="M308.333,159.563C302.811,159.563 298.333,164.04 298.333,169.563L298.333,251.563C298.333,257.086 302.811,261.563 308.333,261.563C313.855,261.563 318.333,257.086 318.333,251.563L318.333,169.563C318.333,164.041 313.855,159.563 308.333,159.563Z" style="fill:rgb(253,248,0);fill-rule:nonzero;"/>
        <path id="XMLID_2236_" d="M308.33,121.9C310.97,121.9 313.54,120.83 315.399,118.97C317.269,117.11 318.33,114.53 318.33,111.9C318.33,109.27 317.269,106.69 315.399,104.83C313.54,102.96 310.969,101.9 308.33,101.9C305.7,101.9 303.12,102.96 301.26,104.83C299.4,106.69 298.33,109.26 298.33,111.9C298.33,114.53 299.399,117.11 301.26,118.97C303.12,120.83 305.7,121.9 308.33,121.9Z" style="fill:rgb(253,248,0);fill-rule:nonzero;"/>
        <path id="XMLID_2237_" d="M368.479,355.9C371.109,355.9 373.689,354.83 375.549,352.97C377.419,351.1 378.479,348.53 378.479,345.9C378.479,343.27 377.419,340.69 375.549,338.83C373.689,336.96 371.109,335.9 368.479,335.9C365.849,335.9 363.269,336.96 361.41,338.83C359.55,340.69 358.479,343.27 358.479,345.9C358.479,348.53 359.549,351.1 361.41,352.97C363.27,354.83 365.85,355.9 368.479,355.9Z" style="fill:rgb(253,248,0);fill-rule:nonzero;"/>
    </g>
</svg>
