<?xml version="1.0" encoding="UTF-8" standalone="no"?>
<!DOCTYPE svg PUBLIC "-//W3C//DTD SVG 1.1//EN" "http://www.w3.org/Graphics/SVG/1.1/DTD/svg11.dtd">
<svg width="100%" height="100%" viewBox="0 0 512 512" version="1.1" xmlns="http://www.w3.org/2000/svg" xmlns:xlink="http://www.w3.org/1999/xlink" xml:space="preserve" xmlns:serif="http://www.serif.com/" style="fill-rule:evenodd;clip-rule:evenodd;stroke-linejoin:round;stroke-miterlimit:2;">
    <circle cx="256" cy="256" r="52.5" style="fill:rgb(253,248,0);"/>
    <path d="M256,6C117.929,6 6,117.929 6,256C6,394.071 117.929,506 256,506C394.071,506 506,394.071 506,256C506,117.929 394.071,6 256,6ZM410.458,319.54C409.258,343.308 402.579,366.746 385.258,383.883C367.769,401.183 344.22,407.629 320.223,408.817L191.778,408.817C167.778,407.629 144.232,401.187 126.743,383.883C109.421,366.746 102.743,343.308 101.543,319.54L101.543,192.46C102.743,168.692 109.422,145.254 126.743,128.116C144.232,110.816 167.781,104.37 191.778,103.183L320.222,103.183C344.222,104.37 367.768,110.813 385.257,128.116C402.579,145.254 409.257,168.692 410.457,192.46L410.458,319.54Z" style="fill:rgb(253,248,0);fill-rule:nonzero;"/>
    <path d="M318.6,132.138C287.314,131.28 224.694,131.28 193.408,132.138C177.127,132.585 158.67,136.638 147.07,149.028C135.016,161.907 130.461,177.467 129.999,194.874C129.187,225.426 129.999,317.126 129.999,317.126C130.528,334.531 135.016,350.093 147.07,362.972C158.67,375.366 177.127,379.415 193.408,379.862C224.694,380.72 287.314,380.72 318.6,379.862C334.881,379.415 353.338,375.362 364.938,362.972C376.992,350.093 381.547,334.533 382.009,317.126L382.009,194.874C381.547,177.467 376.992,161.907 364.938,149.028C353.334,136.634 334.877,132.585 318.6,132.138ZM256,337.375C211.359,337.375 174.625,300.641 174.625,256C174.625,211.359 211.359,174.625 256,174.625C300.641,174.625 337.375,211.359 337.375,256C337.375,300.641 300.641,337.375 256,337.375ZM337.721,191.422C328.794,191.42 321.45,184.074 321.45,175.147C321.45,166.219 328.797,158.872 337.725,158.872C346.653,158.872 354,166.219 354,175.147C354,184.075 346.653,191.422 337.725,191.422C337.724,191.422 337.722,191.422 337.721,191.422Z" style="fill:rgb(253,248,0);fill-rule:nonzero;"/>
</svg>
