<?xml version="1.0" encoding="UTF-8" standalone="no"?>
<!DOCTYPE svg PUBLIC "-//W3C//DTD SVG 1.1//EN" "http://www.w3.org/Graphics/SVG/1.1/DTD/svg11.dtd">
<svg width="100%" height="100%" viewBox="0 0 512 512" version="1.1" xmlns="http://www.w3.org/2000/svg" xmlns:xlink="http://www.w3.org/1999/xlink" xml:space="preserve" xmlns:serif="http://www.serif.com/" style="fill-rule:evenodd;clip-rule:evenodd;stroke-linejoin:round;stroke-miterlimit:2;">
    <path d="M509.145,404.103L467.555,371.669C467.555,371.669 503.224,336 503.311,335.914C510.051,329.175 506.541,317.237 497.262,315.186L440.011,302.536L440.011,109.862C440.011,78.091 414.163,52.244 382.393,52.244L57.618,52.244C25.848,52.243 0,78.091 0,109.861L0,334.762C0,366.533 25.848,392.381 57.618,392.381L355.791,392.381C355.791,392.381 367.395,444.897 367.423,445.022C369.483,454.344 381.404,457.817 388.151,451.072L423.906,415.317C423.906,415.317 456.284,456.836 456.34,456.907C459.074,460.413 464.423,460.732 467.559,457.598C467.559,457.598 509.76,415.397 509.836,415.321C512.985,412.171 512.649,406.835 509.145,404.103ZM57.618,377.379C34.119,377.379 15.001,358.262 15.001,334.762L15.001,318.824C15.068,318.897 15.139,318.966 15.207,319.039C23.873,328.427 35.697,334.865 48.314,336.929C51.387,337.432 54.503,337.705 57.619,337.705L103.416,337.705C107.558,337.705 110.916,334.347 110.916,330.205C110.916,326.063 107.558,322.705 103.416,322.705L57.618,322.705C34.119,322.705 15.001,303.587 15.001,280.087L15.001,109.861C15.001,86.362 34.119,67.244 57.618,67.244L382.392,67.244C405.892,67.244 425.009,86.362 425.009,109.861L425.009,280.087C425.009,280.098 425.008,280.108 425.008,280.119C425.005,286.385 423.587,292.654 420.891,298.309C420.891,298.309 355.327,283.822 355.324,283.822C350.555,282.768 345.411,283.99 341.63,287.084C336.974,290.893 334.778,297.205 336.062,303.087L340.396,322.703L133.417,322.703C129.275,322.703 125.917,326.061 125.917,330.203C125.917,334.345 129.275,337.703 133.417,337.703L343.71,337.703L352.477,377.378L57.618,377.378L57.618,377.379ZM462.951,440.99L430.517,399.4C429.195,397.705 427.209,396.659 425.064,396.526C424.91,396.517 424.756,396.512 424.602,396.512C422.62,396.512 420.71,397.298 419.299,398.709L381.013,436.996C381.013,436.996 350.728,299.929 350.71,299.85C350.533,299.049 351.292,298.295 352.089,298.47L489.235,328.773L450.948,367.06C449.427,368.58 448.633,370.679 448.765,372.825C448.897,374.97 449.944,376.956 451.638,378.278L493.229,410.712L462.951,440.99Z" style="fill:rgb(253,248,0);fill-rule:nonzero;"/>
    <g transform="matrix(1,0,0,1,2.8151,63.3402)">
        <text x="38.972px" y="180.168px" style="font-family:'ArialRoundedMTBold', 'Arial Rounded MT Bold', sans-serif;font-size:135px;fill:rgb(253,248,0);">MINT</text>
    </g>
</svg>
