<?xml version="1.0" encoding="UTF-8" standalone="no"?>
<!DOCTYPE svg PUBLIC "-//W3C//DTD SVG 1.1//EN" "http://www.w3.org/Graphics/SVG/1.1/DTD/svg11.dtd">
<svg width="100%" height="100%" viewBox="0 0 512 512" version="1.1" xmlns="http://www.w3.org/2000/svg" xmlns:xlink="http://www.w3.org/1999/xlink" xml:space="preserve" xmlns:serif="http://www.serif.com/" style="fill-rule:evenodd;clip-rule:evenodd;stroke-linejoin:round;stroke-miterlimit:2;">
    <g id="Outline">
        <path d="M211.664,85.6L207.664,70.12C199.571,72.214 191.626,74.841 183.88,77.984L189.904,92.808C196.992,89.933 204.261,87.525 211.664,85.6Z" style="fill:rgb(253,248,0);fill-rule:nonzero;"/>
        <path d="M422.488,160.312C418.315,153.088 413.681,146.141 408.616,139.512L395.904,149.2C400.549,155.286 404.797,161.665 408.624,168.296L422.488,160.312Z" style="fill:rgb(253,248,0);fill-rule:nonzero;"/>
        <path d="M157.264,420.696C164.418,424.991 171.844,428.815 179.496,432.144L185.896,417.472C178.888,414.42 172.087,410.914 165.536,406.976L157.264,420.696Z" style="fill:rgb(253,248,0);fill-rule:nonzero;"/>
        <path d="M86.48,208.496L71.072,204.184C68.829,212.229 67.111,220.412 65.928,228.68L81.768,230.944C82.852,223.367 84.426,215.869 86.48,208.496Z" style="fill:rgb(253,248,0);fill-rule:nonzero;"/>
        <path d="M132.688,130.4L121.488,118.976C115.528,124.836 109.954,131.076 104.8,137.656L117.392,147.512C122.117,141.484 127.226,135.768 132.688,130.4Z" style="fill:rgb(253,248,0);fill-rule:nonzero;"/>
        <path d="M392.16,120.632C386.273,114.716 380.012,109.185 373.416,104.072L363.616,116.728C369.673,121.413 375.416,126.491 380.808,131.928L392.16,120.632Z" style="fill:rgb(253,248,0);fill-rule:nonzero;"/>
        <path d="M424.92,305.6L440.272,310.104C442.617,302.09 444.437,293.931 445.72,285.68L429.912,283.2C428.735,290.767 427.068,298.249 424.92,305.6Z" style="fill:rgb(253,248,0);fill-rule:nonzero;"/>
        <path d="M377.744,383.104L388.8,394.648C394.824,388.884 400.47,382.738 405.704,376.248L393.232,366.216C388.441,372.175 383.267,377.816 377.744,383.104Z" style="fill:rgb(253,248,0);fill-rule:nonzero;"/>
        <path d="M256,80L257.144,80L257.144,64L256,64C248.055,64.001 240.118,64.488 232.232,65.456L234.176,81.328C241.417,80.446 248.705,80.003 256,80Z" style="fill:rgb(253,248,0);fill-rule:nonzero;"/>
        <path d="M426.096,210.616L441.552,206.496C439.406,198.423 436.733,190.5 433.552,182.776L418.76,188.88C421.678,195.957 424.129,203.218 426.096,210.616Z" style="fill:rgb(253,248,0);fill-rule:nonzero;"/>
        <path d="M406.4,347.424L420.064,355.752C424.403,348.625 428.273,341.223 431.648,333.592L417.016,327.128C413.922,334.117 410.376,340.896 406.4,347.424Z" style="fill:rgb(253,248,0);fill-rule:nonzero;"/>
        <path d="M256,432L252.744,432L252.416,448L256,448C263.149,447.996 270.293,447.606 277.4,446.832L275.656,430.92C269.129,431.64 262.567,432 256,432Z" style="fill:rgb(253,248,0);fill-rule:nonzero;"/>
        <path d="M340.856,410.224L348.584,424.24C355.892,420.203 362.933,415.7 369.664,410.76L360.184,397.864C354.016,402.398 347.559,406.526 340.856,410.224Z" style="fill:rgb(253,248,0);fill-rule:nonzero;"/>
        <path d="M430.52,233.112C431.508,240.701 432.002,248.347 432,256C432,257.464 432,258.912 431.952,260.368L447.952,260.744C447.952,259.144 448.008,257.544 448.008,256C448.01,247.657 447.476,239.322 446.408,231.048L430.52,233.112Z" style="fill:rgb(253,248,0);fill-rule:nonzero;"/>
        <path d="M104.456,166.448L90.688,158.288C86.44,165.468 82.661,172.915 79.376,180.584L94.088,186.88C97.095,179.851 100.559,173.026 104.456,166.448Z" style="fill:rgb(253,248,0);fill-rule:nonzero;"/>
        <path d="M298.216,426.904L302.048,442.44C310.16,440.443 318.132,437.915 325.912,434.872L320.096,420C312.962,422.777 305.652,425.084 298.216,426.904Z" style="fill:rgb(253,248,0);fill-rule:nonzero;"/>
        <path d="M169.24,102.832L161.344,88.928C154.086,93.054 147.101,97.642 140.432,102.664L150.032,115.464C156.156,110.845 162.572,106.625 169.24,102.832Z" style="fill:rgb(253,248,0);fill-rule:nonzero;"/>
        <path d="M203.048,440.608C211.074,442.899 219.241,444.668 227.496,445.904L229.896,430.08C222.332,428.944 214.85,427.319 207.496,425.216L203.048,440.608Z" style="fill:rgb(253,248,0);fill-rule:nonzero;"/>
        <path d="M352.688,90.088C345.474,85.869 337.991,82.128 330.288,78.888L324.088,93.64C331.133,96.605 337.98,100.023 344.584,103.872L352.688,90.088Z" style="fill:rgb(253,248,0);fill-rule:nonzero;"/>
        <path d="M88.336,349.6C92.413,356.883 96.956,363.895 101.936,370.592L114.776,361.048C110.204,354.904 106.033,348.472 102.288,341.792L88.336,349.6Z" style="fill:rgb(253,248,0);fill-rule:nonzero;"/>
        <path d="M118.168,389.672C123.982,395.665 130.176,401.276 136.712,406.472L146.656,393.936C140.661,389.177 134.982,384.033 129.656,378.536L118.168,389.672Z" style="fill:rgb(253,248,0);fill-rule:nonzero;"/>
        <path d="M306.656,70.76C298.603,68.563 290.415,66.895 282.144,65.768L280,81.6C287.582,82.63 295.089,84.156 302.472,86.168L306.656,70.76Z" style="fill:rgb(253,248,0);fill-rule:nonzero;"/>
        <path d="M80,256.04L80,253.8L64,253.6L64,256C63.999,263.547 64.44,271.088 65.32,278.584L81.208,276.728C80.406,269.861 80.003,262.954 80,256.04Z" style="fill:rgb(253,248,0);fill-rule:nonzero;"/>
        <path d="M85.36,299.272L69.84,303.192C71.907,311.293 74.5,319.251 77.6,327.016L92.472,321.096C89.625,313.985 87.249,306.695 85.36,299.272Z" style="fill:rgb(253,248,0);fill-rule:nonzero;"/>
        <path d="M490.032,202.592C486.468,191.627 479.838,181.909 470.928,174.592C465.773,170.045 461.364,164.716 457.864,158.8C455.343,152.245 453.872,145.333 453.504,138.32C453.316,126.935 449.895,115.835 443.64,106.32C435.742,98.074 425.656,92.246 414.568,89.52C407.846,87.622 401.466,84.674 395.664,80.784C390.625,76.016 386.367,70.484 383.048,64.392C377.93,54.139 369.991,45.557 360.168,39.656C349.555,35.7 338.033,34.843 326.952,37.184C319.98,38.4 312.86,38.503 305.856,37.488C299.372,35.419 293.254,32.341 287.728,28.368C278.528,21.341 267.528,17.053 256,16C244.464,17.074 233.464,21.387 224.272,28.44C218.746,32.423 212.629,35.514 206.144,37.6C199.139,38.604 192.02,38.499 185.048,37.288C173.966,34.954 162.446,35.812 151.832,39.76C142.003,45.659 134.06,54.245 128.944,64.504C125.627,70.595 121.372,76.127 116.336,80.896C110.532,84.774 104.152,87.712 97.432,89.6C86.345,92.328 76.259,98.156 68.36,106.4C62.105,115.915 58.684,127.015 58.496,138.4C58.128,145.413 56.657,152.325 54.136,158.88C50.635,164.798 46.223,170.127 41.064,174.672C32.158,181.991 25.531,191.709 21.968,202.672C20.518,213.808 22.246,225.131 26.952,235.328C29.715,241.909 31.419,248.886 32,256C31.427,263.141 29.723,270.146 26.952,276.752C22.246,286.949 20.518,298.272 21.968,309.408C25.532,320.373 32.162,330.091 41.072,337.408C46.227,341.955 50.636,347.284 54.136,353.2C56.657,359.755 58.128,366.667 58.496,373.68C58.684,385.065 62.105,396.165 68.36,405.68C76.269,413.896 86.353,419.696 97.432,422.4C104.154,424.298 110.534,427.246 116.336,431.136C121.375,435.904 125.633,441.436 128.952,447.528C134.07,457.781 142.009,466.363 151.832,472.264C162.446,476.212 173.966,477.07 185.048,474.736C192.02,473.52 199.14,473.417 206.144,474.432C212.628,476.501 218.746,479.579 224.272,483.552C233.463,490.608 244.463,494.924 256,496C267.536,494.926 278.536,490.613 287.728,483.56C293.254,479.577 299.371,476.486 305.856,474.4C312.861,473.408 319.979,473.513 326.952,474.712C338.033,477.058 349.556,476.201 360.168,472.24C369.997,466.341 377.94,457.755 383.056,447.496C386.373,441.405 390.628,435.873 395.664,431.104C401.468,427.226 407.848,424.288 414.568,422.4C425.651,419.684 435.736,413.87 443.64,405.64C449.895,396.125 453.316,385.025 453.504,373.64C453.872,366.627 455.343,359.715 457.864,353.16C461.365,347.242 465.777,341.913 470.936,337.368C479.842,330.049 486.469,320.331 490.032,309.368C491.482,298.232 489.754,286.909 485.048,276.712C482.281,270.118 480.577,263.127 480,256C480.573,248.859 482.277,241.854 485.048,235.248C489.754,225.051 491.482,213.728 490.032,202.592ZM469.936,282.016C473.448,289.447 474.996,297.656 474.432,305.856C471.348,313.775 466.245,320.751 459.632,326.088C453.147,331.856 447.678,338.674 443.456,346.256C440.092,354.403 438.115,363.056 437.608,371.856C437.538,380.213 435.311,388.412 431.144,395.656C424.981,401.355 417.449,405.365 409.28,407.296C400.835,409.724 392.857,413.553 385.68,418.624C379.182,424.474 373.711,431.372 369.496,439.032C365.798,446.617 360.183,453.107 353.208,457.856C345.265,460.281 336.83,460.617 328.72,458.832C319.98,457.376 311.06,457.376 302.32,458.832C294.043,461.245 286.23,465.031 279.208,470.032C272.481,475.333 264.476,478.772 256,480C247.526,478.768 239.524,475.327 232.8,470.024C225.78,465.024 217.97,461.238 209.696,458.824C206.067,458.037 202.361,457.659 198.648,457.696C193.511,457.793 188.383,458.172 183.288,458.832C175.177,460.613 166.743,460.277 158.8,457.856C151.829,453.102 146.215,446.614 142.512,439.032C138.297,431.374 132.826,424.478 126.328,418.632C119.156,413.556 111.181,409.723 102.736,407.296C94.564,405.373 87.03,401.362 80.872,395.656C76.703,388.415 74.474,380.219 74.4,371.864C73.894,363.065 71.92,354.412 68.56,346.264C64.334,338.686 58.866,331.871 52.384,326.104C45.775,320.76 40.678,313.778 37.6,305.856C37.036,297.656 38.584,289.447 42.096,282.016C45.506,273.736 47.502,264.941 48,256C47.492,247.057 45.485,238.262 42.064,229.984C38.552,222.553 37.004,214.344 37.568,206.144C40.652,198.225 45.755,191.249 52.368,185.912C58.853,180.144 64.322,173.326 68.544,165.744C71.908,157.597 73.885,148.944 74.392,140.144C74.462,131.787 76.689,123.588 80.856,116.344C87.019,110.645 94.551,106.635 102.72,104.704C111.165,102.276 119.143,98.447 126.32,93.376C132.818,87.526 138.287,80.624 142.496,72.96C146.199,65.376 151.817,58.887 158.792,54.136C166.735,51.716 175.169,51.38 183.28,53.16C192.018,54.632 200.942,54.632 209.68,53.16C217.957,50.747 225.77,46.961 232.792,41.96C239.52,36.661 247.525,33.226 256,32C264.474,33.232 272.476,36.673 279.2,41.976C286.22,46.976 294.03,50.762 302.304,53.176C311.042,54.647 319.966,54.647 328.704,53.176C336.814,51.388 345.25,51.724 353.192,54.152C360.166,58.9 365.786,65.382 369.496,72.96C373.711,80.618 379.182,87.514 385.68,93.36C392.852,98.436 400.827,102.269 409.272,104.696C417.444,106.619 424.978,110.63 431.136,116.336C435.306,123.579 437.536,131.778 437.608,140.136C438.114,148.935 440.088,157.588 443.448,165.736C447.674,173.314 453.142,180.129 459.624,185.896C466.241,191.235 471.346,198.214 474.432,206.136C474.996,214.336 473.448,222.545 469.936,229.976C466.514,238.257 464.507,247.054 464,256C464.508,264.943 466.515,273.738 469.936,282.016Z" style="fill:rgb(253,248,0);fill-rule:nonzero;"/>
        <path d="M282.592,224L256,142.064L229.408,224L143.336,224L212.984,274.496L186.4,356.32L256,305.752L325.6,356.32L299.016,274.496L368.664,224L282.592,224ZM295.2,314.4L256,285.968L216.8,314.4L231.76,268.344L192.664,240L241.04,240L256,193.904L270.96,240L319.336,240L280.208,268.376L295.2,314.4Z" style="fill:rgb(253,248,0);fill-rule:nonzero;"/>
        <path d="M408,256C408,172.615 339.385,104 256,104C172.615,104 104,172.615 104,256C104,339.385 172.615,408 256,408C339.35,407.908 407.908,339.35 408,256ZM256,392C181.393,392 120,330.607 120,256C120,181.393 181.393,120 256,120C330.607,120 392,181.393 392,256C391.917,330.576 330.576,391.917 256,392Z" style="fill:rgb(253,248,0);fill-rule:nonzero;"/>
    </g>
</svg>
