<?xml version="1.0" encoding="UTF-8" standalone="no"?>
<!DOCTYPE svg PUBLIC "-//W3C//DTD SVG 1.1//EN" "http://www.w3.org/Graphics/SVG/1.1/DTD/svg11.dtd">
<svg width="100%" height="100%" viewBox="0 0 512 512" version="1.1" xmlns="http://www.w3.org/2000/svg" xmlns:xlink="http://www.w3.org/1999/xlink" xml:space="preserve" xmlns:serif="http://www.serif.com/" style="fill-rule:evenodd;clip-rule:evenodd;stroke-linejoin:round;stroke-miterlimit:2;">
    <path id="Fill-184" d="M357.792,203.792C357.888,206.048 357.952,208.304 357.952,210.592C357.952,279.984 305.12,360.016 208.512,360.016C178.848,360.016 151.248,351.328 128,336.432C132.112,336.912 136.288,337.152 140.528,337.152C165.136,337.152 187.776,328.768 205.76,314.672C182.768,314.256 163.376,299.072 156.688,278.208C159.904,278.816 163.184,279.136 166.576,279.136C171.36,279.136 176,278.496 180.416,277.296C156.384,272.48 138.288,251.248 138.288,225.808L138.288,225.136C145.36,229.072 153.472,231.44 162.08,231.712C147.984,222.288 138.704,206.208 138.704,188C138.704,178.368 141.296,169.344 145.824,161.584C171.728,193.36 210.432,214.272 254.08,216.464C253.184,212.624 252.72,208.608 252.72,204.496C252.72,175.488 276.24,151.968 305.232,151.968C320.352,151.968 334,158.352 343.568,168.56C355.536,166.208 366.784,161.84 376.928,155.824C373.008,168.08 364.672,178.368 353.84,184.88C364.464,183.6 374.576,180.784 384,176.608C376.96,187.136 368.048,196.384 357.792,203.792M256,0C114.608,0 0,114.608 0,256C0,397.376 114.608,512 256,512C397.392,512 512,397.376 512,256C512,114.608 397.392,0 256,0" style="fill:rgb(253,248,0);"/>
</svg>
